HIERARCHY
ROOT joint_Root
{
	OFFSET 0.0 0.0 0.0
	CHANNELS 6 Xposition Yposition Zposition Zrotation Xrotation Yrotation 
	JOINT Hips
	{
		OFFSET -0.726466 93.3139 -2.00062
		CHANNELS 6 Xposition Yposition Zposition Zrotation Xrotation Yrotation 
		JOINT Spine
		{
			OFFSET 15.7357 0.0 0.0
			CHANNELS 6 Xposition Yposition Zposition Zrotation Xrotation Yrotation 
			JOINT Chest
			{
				OFFSET 8.98455 -0.406207 0.0
				CHANNELS 6 Xposition Yposition Zposition Zrotation Xrotation Yrotation 
				JOINT Neck
				{
					OFFSET 16.3773 0.0 0.0
					CHANNELS 6 Xposition Yposition Zposition Zrotation Xrotation Yrotation 
					JOINT Head
					{
						OFFSET 6.45672 0.0 0.0
						CHANNELS 6 Xposition Yposition Zposition Zrotation Xrotation Yrotation 
						End Site
						{
							OFFSET 0.0 0.0 0.0
						}
					}
				}
				JOINT Shoulder_L
				{
					OFFSET 12.9942 -0.242716 4.98039
					CHANNELS 6 Xposition Yposition Zposition Zrotation Xrotation Yrotation 
					JOINT UpperArm_L
					{
						OFFSET 5.34809 0.0 0.0
						CHANNELS 6 Xposition Yposition Zposition Zrotation Xrotation Yrotation 
						JOINT LowerArm_L
						{
							OFFSET 24.3286 1.87007e-05 0.0
							CHANNELS 6 Xposition Yposition Zposition Zrotation Xrotation Yrotation 
							JOINT Hand_L
							{
								OFFSET 22.2916 0.0 0.0
								CHANNELS 6 Xposition Yposition Zposition Zrotation Xrotation Yrotation 
								End Site
								{
									OFFSET 0.0 0.0 0.0
								}
							}
						}
					}
				}
				JOINT Shoulder_R
				{
					OFFSET 12.9945 -0.242716 -4.98039
					CHANNELS 6 Xposition Yposition Zposition Zrotation Xrotation Yrotation 
					JOINT UpperArm_R
					{
						OFFSET -5.34813 0.0 0.0
						CHANNELS 6 Xposition Yposition Zposition Zrotation Xrotation Yrotation 
						JOINT LowerArm_R
						{
							OFFSET -24.3289 0.000322201 0.0
							CHANNELS 6 Xposition Yposition Zposition Zrotation Xrotation Yrotation 
							JOINT Hand_R
							{
								OFFSET -22.2915 -0.000108084 0.0
								CHANNELS 6 Xposition Yposition Zposition Zrotation Xrotation Yrotation 
								End Site
								{
									OFFSET 0.0 0.0 0.0
								}
							}
						}
					}
				}
			}
		}
		JOINT UpperLeg_L
		{
			OFFSET -2.19248 -6.46944 0.0
			CHANNELS 6 Xposition Yposition Zposition Zrotation Xrotation Yrotation 
			JOINT LowerLeg_L
			{
				OFFSET 39.0811 0.0 -1.23785e-05
				CHANNELS 6 Xposition Yposition Zposition Zrotation Xrotation Yrotation 
				JOINT Foot_L
				{
					OFFSET 40.9854 0.0 -1.26872e-05
					CHANNELS 6 Xposition Yposition Zposition Zrotation Xrotation Yrotation 
					JOINT Toes_L
					{
						OFFSET 11.7543 0.0 0.0
						CHANNELS 6 Xposition Yposition Zposition Zrotation Xrotation Yrotation 
						End Site
						{
							OFFSET 0.0 0.0 0.0
						}
					}
				}
			}
		}
		JOINT UpperLeg_R
		{
			OFFSET -2.19251 6.46944 0.0
			CHANNELS 6 Xposition Yposition Zposition Zrotation Xrotation Yrotation 
			JOINT LowerLeg_R
			{
				OFFSET -39.0811 -0.00228153 -0.0401928
				CHANNELS 6 Xposition Yposition Zposition Zrotation Xrotation Yrotation 
				JOINT Foot_R
				{
					OFFSET -40.9854 0.0 0.0
					CHANNELS 6 Xposition Yposition Zposition Zrotation Xrotation Yrotation 
					JOINT Toes_R
					{
						OFFSET -11.7543 0.0 0.0
						CHANNELS 6 Xposition Yposition Zposition Zrotation Xrotation Yrotation 
						End Site
						{
							OFFSET 0.0 0.0 0.0
						}
					}
				}
			}
		}
	}
}
MOTION
Frames:	7
Frame Time:	0.0333333
0.000000 0.000000 0.000000 0.000000 0.000000 -0.000000 0.109451 92.340000 -1.169390 88.060300 -0.659173 4.171480 15.735700 0.000005 -0.000001 88.532300 85.109900 -88.400600 8.984550 -0.406207 -0.000000 2.011340 -0.256956 0.267693 16.377300 -0.000001 -0.000001 3.644810 -2.229520 0.566341 6.456720 -0.000001 -0.000000 2.471730 -1.464750 0.103908 12.994200 -0.242716 4.980390 -89.952300 -0.157673 -73.169500 5.348090 -0.000007 -0.000001 -68.139500 35.178300 -15.615700 24.328600 0.000019 0.000005 1.595320 3.776700 -22.920000 22.291600 -0.000001 0.000005 3.661910 5.465280 -5.194710 12.994500 -0.242716 -4.980390 87.742400 6.977300 -72.020300 -5.348130 -0.000001 -0.000004 -65.647200 38.518600 -16.880000 -24.328900 0.000322 -0.000009 3.224030 9.754730 -18.395600 -22.291500 -0.000108 -0.000004 5.827400 5.353880 -1.493490 -2.192480 -6.469440 -0.000000 -176.173000 -6.111940 -2.966580 39.081100 -0.000007 -0.000012 -0.093712 0.220546 23.021200 40.985400 -0.000006 -0.000013 0.330512 3.097360 -66.163500 11.754300 -0.000000 0.000003 -0.000030 -0.000361 -16.591600 -2.192510 6.469440 -0.000001 179.195000 12.373800 179.354000 -39.081100 -0.002282 -0.040193 -0.046234 0.139015 19.620100 -40.985400 0.000008 0.000006 2.175900 6.727650 -65.093400 -11.754300 -0.000006 -0.000006 -0.007718 -0.085712 -20.063100
0.000000 0.000000 0.000000 0.000000 0.000000 -0.000000 0.099712 92.328700 -1.218060 88.079000 -0.560404 4.321250 15.735700 0.000005 -0.000001 88.515700 85.034200 -88.396500 8.984550 -0.406207 -0.000000 2.162580 -0.262906 0.243078 16.377300 -0.000001 -0.000001 3.509870 -2.249280 0.592595 6.456720 -0.000001 -0.000000 2.466540 -1.456180 0.134782 12.994200 -0.242716 4.980390 -90.016100 0.054125 -73.398700 5.348090 -0.000007 -0.000001 -67.968900 31.983200 -16.009300 24.328600 0.000019 0.000005 0.976485 2.162870 -24.307000 22.291600 -0.000001 0.000005 3.513000 5.456770 -4.883500 12.994500 -0.242716 -4.980390 87.785000 6.891320 -72.132900 -5.348130 -0.000001 -0.000004 -64.839500 38.029400 -17.634700 -24.328900 0.000322 -0.000009 3.809240 10.536900 -20.011100 -22.291500 -0.000108 -0.000004 4.078620 5.341050 -1.109250 -2.192480 -6.469440 -0.000000 -176.182000 -6.022490 -2.910630 39.081100 -0.000007 -0.000012 -0.094701 0.221865 23.114700 40.985400 -0.000006 -0.000013 0.327944 3.084270 -66.168600 11.754300 -0.000000 0.000003 -0.000030 -0.000357 -16.591500 -2.192510 6.469440 -0.000001 179.155000 12.375300 179.411000 -39.081100 -0.002282 -0.040193 -0.047182 0.140638 19.753400 -40.985400 0.000008 0.000006 2.171120 6.643330 -65.131000 -11.754300 -0.000006 -0.000006 -0.007419 -0.083224 -19.961500
0.000000 0.000000 0.000000 0.000000 0.000000 -0.000000 0.084385 92.320400 -1.294740 88.103500 -0.491729 4.547140 15.735700 0.000005 -0.000001 88.668600 84.941200 -88.568200 8.984550 -0.406207 -0.000000 2.348980 -0.239643 0.205457 16.377300 -0.000001 -0.000001 3.503520 -2.266660 0.540538 6.456720 -0.000001 -0.000000 2.368830 -1.489570 0.254572 12.994200 -0.242716 4.980390 -90.090300 0.304799 -73.491900 5.348090 -0.000007 -0.000001 -66.407400 28.761400 -17.969400 24.328600 0.000019 0.000005 0.987618 1.952170 -26.836300 22.291600 -0.000001 0.000005 4.747010 5.465720 -5.208130 12.994500 -0.242716 -4.980390 87.775500 6.926810 -72.147100 -5.348130 -0.000001 -0.000004 -62.982000 36.503500 -19.502200 -24.328900 0.000322 -0.000009 4.844410 11.679400 -22.721300 -22.291500 -0.000108 -0.000004 2.483800 5.325870 -0.665436 -2.192480 -6.469440 -0.000000 -176.179000 -5.965240 -2.785720 39.081100 -0.000007 -0.000012 -0.094917 0.221545 23.191900 40.985400 -0.000006 -0.000013 0.325838 3.111890 -66.147800 11.754300 -0.000000 0.000003 -0.000037 -0.000439 -16.594700 -2.192510 6.469440 -0.000001 179.125000 12.343500 179.523000 -39.081100 -0.002282 -0.040193 -0.045277 0.134292 19.894800 -40.985400 0.000008 0.000006 2.222350 6.540480 -65.163600 -11.754300 -0.000006 -0.000006 -0.007511 -0.083995 -19.993000
0.000000 0.000000 0.000000 0.000000 0.000000 -0.000000 0.057269 92.308500 -1.462740 88.124100 -0.396596 4.707040 15.735700 0.000005 -0.000001 88.422100 84.901500 -88.342100 8.984550 -0.406207 -0.000000 2.427330 -0.284284 0.165882 16.377300 -0.000001 -0.000001 3.787810 -2.239750 0.508228 6.456720 -0.000001 -0.000000 2.239610 -1.465450 0.245483 12.994200 -0.242716 4.980390 -90.092400 0.313939 -73.606000 5.348090 -0.000007 -0.000001 -64.322300 24.646800 -21.264300 24.328600 0.000019 0.000005 1.856340 3.176460 -30.319600 22.291600 -0.000001 0.000005 6.895300 5.496100 -6.374300 12.994500 -0.242716 -4.980390 87.740700 6.974000 -71.999600 -5.348130 -0.000001 -0.000004 -59.977100 33.916200 -23.022900 -24.328900 0.000322 -0.000009 6.180530 12.753800 -26.132600 -22.291500 -0.000108 -0.000004 3.058580 5.324180 -0.615870 -2.192480 -6.469440 -0.000000 -176.168000 -5.989660 -2.844450 39.081100 -0.000007 -0.000012 -0.096084 0.222540 23.352900 40.985400 -0.000006 -0.000013 0.331483 3.186660 -66.092700 11.754300 -0.000000 0.000003 -0.000032 -0.000386 -16.592600 -2.192510 6.469440 -0.000001 179.127000 12.310300 179.459000 -39.081100 -0.002282 -0.040193 -0.046267 0.135384 20.116700 -40.985400 0.000008 0.000006 2.245990 6.383170 -65.165100 -11.754300 -0.000006 -0.000006 -0.007672 -0.085334 -20.047700
0.000000 0.000000 0.000000 0.000000 0.000000 -0.000000 0.025839 92.311600 -1.627640 88.131300 -0.371107 4.975430 15.735700 0.000005 -0.000001 88.151700 84.892400 -88.072600 8.984550 -0.406207 -0.000000 2.444060 -0.332887 0.165141 16.377300 -0.000001 -0.000001 4.154100 -2.192180 0.452806 6.456720 -0.000001 -0.000000 2.520440 -1.336220 0.225022 12.994200 -0.242716 4.980390 -90.054300 0.187675 -73.856400 5.348090 -0.000007 -0.000001 -62.162000 19.674100 -25.122500 24.328600 0.000019 0.000005 2.176130 3.075470 -35.310600 22.291600 -0.000001 0.000005 9.550650 5.514040 -7.105750 12.994500 -0.242716 -4.980390 87.767400 6.863300 -71.931600 -5.348130 -0.000001 -0.000004 -56.877900 29.638500 -27.302300 -24.328900 0.000322 -0.000009 7.659460 13.096900 -30.692100 -22.291500 -0.000108 -0.000004 5.536830 5.324820 -0.635248 -2.192480 -6.469440 -0.000000 -176.109000 -6.150480 -2.718980 39.081100 -0.000007 -0.000012 -0.095897 0.221575 23.402900 40.985400 -0.000006 -0.000013 0.360286 3.393960 -65.997300 11.754300 -0.000000 0.000003 -0.000037 -0.000437 -16.594600 -2.192510 6.469440 -0.000001 179.118000 12.304900 179.568000 -39.081100 -0.002282 -0.040193 -0.045563 0.132801 20.208600 -40.985400 0.000008 0.000006 2.305450 6.328140 -65.103900 -11.754300 -0.000006 -0.000006 -0.007541 -0.084243 -20.003100
0.000000 0.000000 0.000000 0.000000 0.000000 -0.000000 0.021481 92.309100 -1.792780 88.124700 -0.397243 5.200890 15.735700 0.000005 -0.000001 87.749800 84.944300 -87.671400 8.984550 -0.406207 -0.000000 2.337950 -0.400411 0.164785 16.377300 -0.000001 -0.000001 4.592260 -2.121650 0.386289 6.456720 -0.000001 -0.000000 2.890120 -1.186520 0.377975 12.994200 -0.242716 4.980390 -89.944900 -0.194181 -74.147500 5.348090 -0.000007 -0.000001 -60.481600 13.998400 -29.517900 24.328600 0.000019 0.000005 2.620120 2.997570 -41.183200 22.291600 -0.000001 0.000005 12.307300 5.541390 -8.301650 12.994500 -0.242716 -4.980390 87.836100 6.647940 -71.924300 -5.348130 -0.000001 -0.000004 -54.210600 23.960900 -32.053900 -24.328900 0.000322 -0.000009 9.224460 12.782700 -36.281800 -22.291500 -0.000108 -0.000004 8.190200 5.325180 -0.646323 -2.192480 -6.469440 -0.000000 -176.098000 -6.071620 -2.651000 39.081100 -0.000007 -0.000012 -0.094182 0.216640 23.496500 40.985400 -0.000006 -0.000013 0.348982 3.323400 -65.933100 11.754300 -0.000000 0.000003 -0.000034 -0.000400 -16.593200 -2.192510 6.469440 -0.000001 179.063000 12.364900 179.660000 -39.081100 -0.002282 -0.040193 -0.050408 0.145561 20.260000 -40.985400 0.000008 0.000006 2.109120 6.447000 -64.989900 -11.754300 -0.000006 -0.000006 -0.007826 -0.086608 -20.099700
0.000000 0.000000 0.000000 0.000000 0.000000 -0.000000 0.014036 92.311000 -1.915100 88.133600 -0.523579 5.369930 15.735700 0.000005 -0.000001 87.712900 85.008400 -87.649500 8.984550 -0.406207 -0.000000 2.209410 -0.401171 0.134385 16.377300 -0.000001 -0.000001 4.916290 -2.065160 0.425893 6.456720 -0.000001 -0.000000 3.217250 -1.047360 0.558230 12.994200 -0.242716 4.980390 -89.821300 -0.636969 -74.331100 5.348090 -0.000007 -0.000001 -59.267600 7.969160 -34.410700 24.328600 0.000019 0.000005 4.027650 3.609700 -48.194600 22.291600 -0.000001 0.000005 15.407100 5.563080 -9.336570 12.994500 -0.242716 -4.980390 87.938100 6.342860 -71.949900 -5.348130 -0.000001 -0.000004 -52.105600 17.484700 -37.172400 -24.328900 0.000322 -0.000009 11.744400 12.783500 -43.216800 -22.291500 -0.000108 -0.000004 10.812800 5.316840 -0.404723 -2.192480 -6.469440 -0.000000 -176.090000 -6.102080 -2.561010 39.081100 -0.000007 -0.000012 -0.094738 0.217664 23.521000 40.985400 -0.000006 -0.000013 0.325696 3.228430 -65.870000 11.754300 -0.000000 0.000003 -0.000038 -0.000446 -16.594900 -2.192510 6.469440 -0.000001 178.994000 12.325900 179.747000 -39.081100 -0.002282 -0.040193 -0.058380 0.167298 20.244400 -40.985400 0.000008 0.000006 1.809260 6.611420 -64.846200 -11.754300 -0.000006 -0.000006 -0.007646 -0.085115 -20.038700
